<svg width="32" height="32" viewBox="0 0 32 32" xmlns="http://www.w3.org/2000/svg">
  <defs>
    <radialGradient id="redGradient" cx="50%" cy="50%" r="50%">
      <stop offset="0%" style="stop-color:#fbbf24;stop-opacity:1" />
      <stop offset="100%" style="stop-color:#dc2626;stop-opacity:1" />
    </radialGradient>
    <linearGradient id="blueGradient" x1="0%" y1="0%" x2="100%" y2="100%">
      <stop offset="0%" style="stop-color:#3b82f6;stop-opacity:1" />
      <stop offset="100%" style="stop-color:#1e40af;stop-opacity:1" />
    </linearGradient>
  </defs>
  
  <!-- Outer blue ring with stars -->
  <circle cx="16" cy="16" r="15" fill="url(#blueGradient)" stroke="white" stroke-width="1"/>
  
  <!-- Stars around the ring -->
  <g fill="white">
    <polygon points="16,2 17,6 21,6 18,8 19,12 16,10 13,12 14,8 11,6 15,6" transform="rotate(0 16 16)"/>
    <polygon points="16,2 17,6 21,6 18,8 19,12 16,10 13,12 14,8 11,6 15,6" transform="rotate(45 16 16)"/>
    <polygon points="16,2 17,6 21,6 18,8 19,12 16,10 13,12 14,8 11,6 15,6" transform="rotate(90 16 16)"/>
    <polygon points="16,2 17,6 21,6 18,8 19,12 16,10 13,12 14,8 11,6 15,6" transform="rotate(135 16 16)"/>
    <polygon points="16,2 17,6 21,6 18,8 19,12 16,10 13,12 14,8 11,6 15,6" transform="rotate(180 16 16)"/>
    <polygon points="16,2 17,6 21,6 18,8 19,12 16,10 13,12 14,8 11,6 15,6" transform="rotate(225 16 16)"/>
    <polygon points="16,2 17,6 21,6 18,8 19,12 16,10 13,12 14,8 11,6 15,6" transform="rotate(270 16 16)"/>
    <polygon points="16,2 17,6 21,6 18,8 19,12 16,10 13,12 14,8 11,6 15,6" transform="rotate(315 16 16)"/>
  </g>
  
  <!-- Inner red circle with gradient -->
  <circle cx="16" cy="16" r="10" fill="url(#redGradient)"/>
  
  <!-- Stylized figure (person/flame/Y shape) -->
  <path d="M16 6 L13 10 L16 9 L19 10 Z" fill="#fbbf24"/>
  <circle cx="16" cy="6" r="1" fill="#f59e0b"/>
  <path d="M16 9 L14 13 L16 12 L18 13 Z" fill="#fbbf24"/>
</svg>
